<svg width="14" height="18" viewBox="0 0 14 18" fill="none" xmlns="http://www.w3.org/2000/svg">
<path fill-rule="evenodd" clip-rule="evenodd" d="M7.99802 10.1756L11.2428 6.93096C11.6334 6.54044 12.2666 6.54044 12.6571 6.93096C13.0476 7.32149 13.0476 7.95465 12.6571 8.34517L7 14.002L1.34291 8.34517C0.952365 7.95465 0.952365 7.32149 1.34291 6.93096C1.73345 6.54044 2.36664 6.54044 2.75718 6.93096L5.99802 10.1717V0.97519C5.99802 0.464249 6.44574 0.0500488 6.99802 0.0500488C7.5503 0.0500488 7.99802 0.464249 7.99802 0.97519V10.1756ZM1 16H13C13.5523 16 14 16.4478 14 17C14 17.5523 13.5523 18 13 18H1C0.447715 18 0 17.5523 0 17C0 16.4478 0.447715 16 1 16Z" fill="white"/>
</svg>
