<svg width="21" height="20" viewBox="0 0 21 20" fill="none" xmlns="http://www.w3.org/2000/svg">
<path d="M19.49 14.6612H11.1471C11.2113 14.6314 11.2404 14.6015 11.2725 14.5743L15.4293 10.5553C15.7442 10.262 15.7442 9.96874 15.68 9.79223C15.648 9.67546 15.4906 9.41206 15.0825 9.35232C15.0504 9.35232 15.0183 9.35232 14.9892 9.35232H13.2227V0.526821C13.2227 0.233539 12.972 0 12.6571 0H8.34287C8.02804 0 7.77734 0.233539 7.77734 0.526821V9.35507H6.0458C6.01376 9.35507 6.01376 9.35507 5.98167 9.35507C5.50945 9.41481 5.35202 9.67821 5.31997 9.79497C5.25583 9.9416 5.22667 10.2349 5.5415 10.5581L9.66628 14.5445C9.69833 14.5743 9.75955 14.6314 9.79163 14.6612H1.48084C0.661706 14.6612 0 15.2777 0 16.0407V18.6205C0 19.3836 0.661706 20 1.48084 20H19.5192C20.3383 20 21 19.3836 21 18.6205V16.0407C21 15.3075 20.3062 14.6612 19.49 14.6612ZM7.05439 10.4684H8.34575C8.66058 10.4684 8.91127 10.2349 8.91127 9.9416V1.0835H12.0275V9.91175C12.0275 10.205 12.2782 10.4386 12.593 10.4386H13.8844L10.4854 13.7542L7.05439 10.4684ZM19.834 18.6504C19.834 18.8269 19.6766 18.9436 19.5192 18.9436H1.48084C1.29136 18.9436 1.16601 18.797 1.16601 18.6504V16.0706C1.16601 15.8941 1.32341 15.7773 1.48084 15.7773H19.5192C19.7086 15.7773 19.834 15.9239 19.834 16.0706V18.6504Z" fill="#2C4971"/>
</svg>
