<svg width="24" height="20" viewBox="0 0 24 20" fill="none" xmlns="http://www.w3.org/2000/svg">
<path d="M21.4874 10.45C23.7937 8.14374 23.7937 4.39374 21.4874 2.10624C19.1812 -0.200006 15.4312 -0.200006 13.1249 2.10624L11.9999 3.23124L10.8749 2.10624C8.56865 -0.200006 4.81865 -0.200006 2.53115 2.10624C1.40615 3.21249 0.806152 4.71249 0.806152 6.28749C0.806152 7.86249 1.4249 9.34374 2.53115 10.4687L11.9999 19.9375L21.4874 10.45ZM2.2874 6.28749C2.2874 5.10624 2.7374 3.99999 3.58115 3.17499C4.44365 2.31249 5.56865 1.88124 6.69365 1.88124C7.81865 1.88124 8.94365 2.31249 9.80615 3.17499L11.9999 5.34999L14.1937 3.15624C15.9187 1.43124 18.7124 1.43124 20.4187 3.15624C21.2437 3.98124 21.7124 5.08749 21.7124 6.26874C21.7124 7.44999 21.2624 8.55624 20.4187 9.38124L11.9999 17.8187L3.58115 9.39999C2.75615 8.55624 2.2874 7.44999 2.2874 6.28749Z" fill="#353535"/>
</svg>
