<svg width="74" height="17" viewBox="0 0 74 17" fill="none" xmlns="http://www.w3.org/2000/svg">
<path d="M0.570312 13V1.57812H1.89844V11.7969H6.9375V13H0.570312ZM16.0781 8.71094C16.0781 10.1068 15.7266 11.1979 15.0234 11.9844C14.3203 12.7656 13.349 13.1562 12.1094 13.1562C11.3438 13.1562 10.6641 12.9766 10.0703 12.6172C9.47656 12.2578 9.01823 11.7422 8.69531 11.0703C8.3724 10.3984 8.21094 9.61198 8.21094 8.71094C8.21094 7.3151 8.5599 6.22917 9.25781 5.45312C9.95573 4.67188 10.9245 4.28125 12.1641 4.28125C13.362 4.28125 14.3125 4.67969 15.0156 5.47656C15.724 6.27344 16.0781 7.35156 16.0781 8.71094ZM9.55469 8.71094C9.55469 9.80469 9.77344 10.638 10.2109 11.2109C10.6484 11.7839 11.2917 12.0703 12.1406 12.0703C12.9896 12.0703 13.6328 11.7865 14.0703 11.2188C14.513 10.6458 14.7344 9.8099 14.7344 8.71094C14.7344 7.6224 14.513 6.79688 14.0703 6.23438C13.6328 5.66667 12.9844 5.38281 12.125 5.38281C11.276 5.38281 10.6354 5.66146 10.2031 6.21875C9.77083 6.77604 9.55469 7.60677 9.55469 8.71094ZM25.3672 4.4375V5.25781L23.7812 5.44531C23.9271 5.6276 24.0573 5.86719 24.1719 6.16406C24.2865 6.45573 24.3438 6.78646 24.3438 7.15625C24.3438 7.99479 24.0573 8.66406 23.4844 9.16406C22.9115 9.66406 22.125 9.91406 21.125 9.91406C20.8698 9.91406 20.6302 9.89323 20.4062 9.85156C19.8542 10.1432 19.5781 10.5104 19.5781 10.9531C19.5781 11.1875 19.6745 11.362 19.8672 11.4766C20.0599 11.5859 20.3906 11.6406 20.8594 11.6406H22.375C23.3021 11.6406 24.013 11.8359 24.5078 12.2266C25.0078 12.6172 25.2578 13.1849 25.2578 13.9297C25.2578 14.8776 24.8776 15.599 24.1172 16.0938C23.3568 16.5938 22.2474 16.8438 20.7891 16.8438C19.6693 16.8438 18.8047 16.6354 18.1953 16.2188C17.5911 15.8021 17.2891 15.2135 17.2891 14.4531C17.2891 13.9323 17.4557 13.4818 17.7891 13.1016C18.1224 12.7214 18.5911 12.4635 19.1953 12.3281C18.9766 12.2292 18.7917 12.0755 18.6406 11.8672C18.4948 11.6589 18.4219 11.4167 18.4219 11.1406C18.4219 10.8281 18.5052 10.5547 18.6719 10.3203C18.8385 10.0859 19.1016 9.85938 19.4609 9.64062C19.0182 9.45833 18.6562 9.14844 18.375 8.71094C18.099 8.27344 17.9609 7.77344 17.9609 7.21094C17.9609 6.27344 18.2422 5.55208 18.8047 5.04688C19.3672 4.53646 20.1641 4.28125 21.1953 4.28125C21.6432 4.28125 22.0469 4.33333 22.4062 4.4375H25.3672ZM18.5391 14.4375C18.5391 14.901 18.7344 15.2526 19.125 15.4922C19.5156 15.7318 20.0755 15.8516 20.8047 15.8516C21.8932 15.8516 22.6979 15.6875 23.2188 15.3594C23.7448 15.0365 24.0078 14.5964 24.0078 14.0391C24.0078 13.5755 23.8646 13.2526 23.5781 13.0703C23.2917 12.8932 22.7526 12.8047 21.9609 12.8047H20.4062C19.8177 12.8047 19.3594 12.9453 19.0312 13.2266C18.7031 13.5078 18.5391 13.9115 18.5391 14.4375ZM19.2422 7.17969C19.2422 7.77865 19.4115 8.23177 19.75 8.53906C20.0885 8.84635 20.5599 9 21.1641 9C22.4297 9 23.0625 8.38542 23.0625 7.15625C23.0625 5.86979 22.4219 5.22656 21.1406 5.22656C20.5312 5.22656 20.0625 5.39062 19.7344 5.71875C19.4062 6.04688 19.2422 6.53385 19.2422 7.17969ZM34.5156 8.71094C34.5156 10.1068 34.1641 11.1979 33.4609 11.9844C32.7578 12.7656 31.7865 13.1562 30.5469 13.1562C29.7812 13.1562 29.1016 12.9766 28.5078 12.6172C27.9141 12.2578 27.4557 11.7422 27.1328 11.0703C26.8099 10.3984 26.6484 9.61198 26.6484 8.71094C26.6484 7.3151 26.9974 6.22917 27.6953 5.45312C28.3932 4.67188 29.362 4.28125 30.6016 4.28125C31.7995 4.28125 32.75 4.67969 33.4531 5.47656C34.1615 6.27344 34.5156 7.35156 34.5156 8.71094ZM27.9922 8.71094C27.9922 9.80469 28.2109 10.638 28.6484 11.2109C29.0859 11.7839 29.7292 12.0703 30.5781 12.0703C31.4271 12.0703 32.0703 11.7865 32.5078 11.2188C32.9505 10.6458 33.1719 9.8099 33.1719 8.71094C33.1719 7.6224 32.9505 6.79688 32.5078 6.23438C32.0703 5.66667 31.4219 5.38281 30.5625 5.38281C29.7135 5.38281 29.0729 5.66146 28.6406 6.21875C28.2083 6.77604 27.9922 7.60677 27.9922 8.71094ZM46.8125 13V7.46094C46.8125 6.76302 46.6536 6.24219 46.3359 5.89844C46.0182 5.55469 45.5208 5.38281 44.8438 5.38281C43.9427 5.38281 43.2839 5.6276 42.8672 6.11719C42.4557 6.60677 42.25 7.40885 42.25 8.52344V13H40.9531V0.84375H42.25V4.52344C42.25 4.96615 42.2292 5.33333 42.1875 5.625H42.2656C42.5208 5.21354 42.8828 4.89062 43.3516 4.65625C43.8255 4.41667 44.3646 4.29688 44.9688 4.29688C46.0156 4.29688 46.7995 4.54688 47.3203 5.04688C47.8464 5.54167 48.1094 6.33073 48.1094 7.41406V13H46.8125ZM54.3984 13.1562C53.1328 13.1562 52.1328 12.7708 51.3984 12C50.6693 11.2292 50.3047 10.1589 50.3047 8.78906C50.3047 7.40885 50.6432 6.3125 51.3203 5.5C52.0026 4.6875 52.9167 4.28125 54.0625 4.28125C55.1354 4.28125 55.9844 4.63542 56.6094 5.34375C57.2344 6.04688 57.5469 6.97656 57.5469 8.13281V8.95312H51.6484C51.6745 9.95833 51.9271 10.7214 52.4062 11.2422C52.8906 11.763 53.5703 12.0234 54.4453 12.0234C55.3672 12.0234 56.2786 11.8307 57.1797 11.4453V12.6016C56.7214 12.7995 56.2865 12.9401 55.875 13.0234C55.4688 13.112 54.9766 13.1562 54.3984 13.1562ZM54.0469 5.36719C53.3594 5.36719 52.8099 5.59115 52.3984 6.03906C51.9922 6.48698 51.7526 7.10677 51.6797 7.89844H56.1562C56.1562 7.08073 55.974 6.45573 55.6094 6.02344C55.2448 5.58594 54.724 5.36719 54.0469 5.36719ZM63.6719 4.28125C64.0521 4.28125 64.3932 4.3125 64.6953 4.375L64.5156 5.57812C64.1615 5.5 63.849 5.46094 63.5781 5.46094C62.8854 5.46094 62.2917 5.74219 61.7969 6.30469C61.3073 6.86719 61.0625 7.56771 61.0625 8.40625V13H59.7656V4.4375H60.8359L60.9844 6.02344H61.0469C61.3646 5.46615 61.7474 5.03646 62.1953 4.73438C62.6432 4.43229 63.1354 4.28125 63.6719 4.28125ZM69.9141 13.1562C68.6484 13.1562 67.6484 12.7708 66.9141 12C66.1849 11.2292 65.8203 10.1589 65.8203 8.78906C65.8203 7.40885 66.1589 6.3125 66.8359 5.5C67.5182 4.6875 68.4323 4.28125 69.5781 4.28125C70.651 4.28125 71.5 4.63542 72.125 5.34375C72.75 6.04688 73.0625 6.97656 73.0625 8.13281V8.95312H67.1641C67.1901 9.95833 67.4427 10.7214 67.9219 11.2422C68.4062 11.763 69.0859 12.0234 69.9609 12.0234C70.8828 12.0234 71.7943 11.8307 72.6953 11.4453V12.6016C72.237 12.7995 71.8021 12.9401 71.3906 13.0234C70.9844 13.112 70.4922 13.1562 69.9141 13.1562ZM69.5625 5.36719C68.875 5.36719 68.3255 5.59115 67.9141 6.03906C67.5078 6.48698 67.2682 7.10677 67.1953 7.89844H71.6719C71.6719 7.08073 71.4896 6.45573 71.125 6.02344C70.7604 5.58594 70.2396 5.36719 69.5625 5.36719Z" fill="#353535"/>
</svg>
