<svg width="24" height="24" viewBox="0 0 24 24" fill="none" xmlns="http://www.w3.org/2000/svg">
<path d="M23.243 8.67004L15.6968 8.03314L12.7615 1.05474C12.6369 0.750141 12.3323 0.54245 12 0.54245C11.6676 0.54245 11.363 0.736311 11.2384 1.05474L8.30306 8.03314L0.756994 8.67004C0.424689 8.69775 0.133922 8.91927 0.0370155 9.23775C-0.0598905 9.55622 0.0370155 9.90236 0.286244 10.1239L6.00468 15.0669L4.28773 22.433C4.21849 22.7653 4.3431 23.0976 4.60621 23.2915C4.88315 23.4853 5.24311 23.4992 5.52005 23.333L12 19.4146L18.4799 23.333C18.6184 23.4161 18.7569 23.4576 18.9092 23.4576C19.0753 23.4576 19.2553 23.4023 19.3938 23.3053C19.6707 23.1114 19.7953 22.7653 19.7123 22.4468L17.9954 15.0807L23.7138 10.1377C23.963 9.91619 24.0599 9.57001 23.963 9.25158C23.866 8.91927 23.5753 8.69775 23.243 8.67004ZM16.5277 14.1531C16.2923 14.3608 16.1954 14.6654 16.2646 14.97L17.6492 20.91L12.4292 17.7531C12.2908 17.67 12.1523 17.6285 12 17.6285C11.8477 17.6285 11.6954 17.67 11.5708 17.7531L6.35081 20.91L7.7354 14.97C7.80465 14.6654 7.70769 14.3608 7.47234 14.1531L2.86161 10.1654L8.94001 9.65313C9.2446 9.62542 9.52154 9.43161 9.63233 9.15467L12 3.51932L14.3677 9.14079C14.4923 9.43156 14.7553 9.62542 15.06 9.63925L21.1384 10.1515L16.5277 14.1531Z" fill="#353535"/>
</svg>
