<svg width="30" height="26" viewBox="0 0 30 26" fill="none" xmlns="http://www.w3.org/2000/svg">
<path d="M17 25.9918C16.7961 25.9913 16.5972 25.9285 16.43 25.8118L6.43 18.8118C6.29753 18.7199 6.18925 18.5973 6.11438 18.4546C6.03951 18.3118 6.00027 18.153 6 17.9918V7.99179C6.00027 7.83057 6.03951 7.67181 6.11438 7.52903C6.18925 7.38625 6.29753 7.26369 6.43 7.17179L16.43 0.171795C16.5758 0.0731512 16.745 0.0147324 16.9206 0.00244133C17.0962 -0.00984971 17.2719 0.0244223 17.43 0.101795C17.5987 0.182101 17.7414 0.30804 17.8422 0.465341C17.9429 0.622642 17.9976 0.805015 18 0.991795V24.9918C18.0004 25.1754 17.9502 25.3556 17.8549 25.5126C17.7597 25.6696 17.623 25.7973 17.46 25.8818C17.3177 25.9547 17.1599 25.9924 17 25.9918ZM8 17.4718L16 23.0718V2.91179L8 8.5118V17.4718Z" fill="white"/>
<path d="M7 18.9918H3C2.20435 18.9918 1.44129 18.6757 0.87868 18.1131C0.31607 17.5505 0 16.7874 0 15.9918V9.99179C0 9.19615 0.31607 8.43308 0.87868 7.87047C1.44129 7.30786 2.20435 6.99179 3 6.99179H7C7.26522 6.99179 7.51957 7.09715 7.70711 7.28469C7.89464 7.47222 8 7.72658 8 7.99179V17.9918C8 18.257 7.89464 18.5114 7.70711 18.6989C7.51957 18.8864 7.26522 18.9918 7 18.9918ZM3 8.99179C2.73478 8.99179 2.48043 9.09715 2.29289 9.28469C2.10536 9.47222 2 9.72658 2 9.99179V15.9918C2 16.257 2.10536 16.5114 2.29289 16.6989C2.48043 16.8864 2.73478 16.9918 3 16.9918H6V8.99179H3Z" fill="white"/>
<path d="M17 17.9918V15.9918C17.593 15.9913 18.1725 15.815 18.6653 15.4854C19.1582 15.1557 19.5423 14.6873 19.7691 14.1395C19.996 13.5916 20.0554 12.9888 19.9399 12.4072C19.8243 11.8257 19.539 11.2913 19.12 10.8718L20.54 9.45179C21.2411 10.1511 21.7187 11.0428 21.9124 12.0139C22.1061 12.985 22.007 13.9917 21.6278 14.9064C21.2487 15.8212 20.6064 16.6027 19.7825 17.152C18.9586 17.7013 17.9902 17.9936 17 17.9918Z" fill="white"/>
<path d="M25.48 22.4718C25.3484 22.4726 25.2179 22.4473 25.0961 22.3976C24.9743 22.3478 24.8634 22.2745 24.77 22.1818C24.6763 22.0888 24.6019 21.9782 24.5511 21.8564C24.5003 21.7345 24.4742 21.6038 24.4742 21.4718C24.4742 21.3398 24.5003 21.2091 24.5511 21.0872C24.6019 20.9654 24.6763 20.8548 24.77 20.7618C26.8279 18.6996 27.9837 15.9052 27.9837 12.9918C27.9837 10.0784 26.8279 7.28403 24.77 5.22179C24.6768 5.12856 24.6028 5.01787 24.5523 4.89604C24.5019 4.77422 24.4759 4.64365 24.4759 4.5118C24.4759 4.37994 24.5019 4.24937 24.5523 4.12755C24.6028 4.00572 24.6768 3.89503 24.77 3.80179C24.8632 3.70856 24.9739 3.6346 25.0958 3.58414C25.2176 3.53367 25.3481 3.5077 25.48 3.5077C25.6119 3.5077 25.7424 3.53367 25.8643 3.58414C25.9861 3.6346 26.0968 3.70856 26.19 3.80179C28.6265 6.23957 29.9952 9.54515 29.9952 12.9918C29.9952 16.4384 28.6265 19.744 26.19 22.1818C26.0966 22.2745 25.9857 22.3478 25.8639 22.3976C25.7421 22.4473 25.6116 22.4726 25.48 22.4718Z" fill="white"/>
<path d="M22.65 19.6418C22.3877 19.6407 22.1363 19.5365 21.95 19.3518C21.7852 19.1606 21.6987 18.9142 21.708 18.662C21.7172 18.4097 21.8216 18.1703 22 17.9918C22.6501 17.3418 23.1658 16.5701 23.5176 15.7207C23.8694 14.8714 24.0505 13.9611 24.0505 13.0418C24.0505 12.1225 23.8694 11.2122 23.5176 10.3628C23.1658 9.51352 22.6501 8.74181 22 8.09179C21.8362 7.90049 21.7506 7.65442 21.7603 7.40274C21.77 7.15107 21.8743 6.91233 22.0524 6.73423C22.2305 6.55614 22.4693 6.4518 22.7209 6.44208C22.9726 6.43236 23.2187 6.51797 23.41 6.68179C25.0954 8.3693 26.0421 10.6568 26.0421 13.0418C26.0421 15.4268 25.0954 17.7143 23.41 19.4018C23.3065 19.4918 23.1857 19.5595 23.0549 19.6008C22.9242 19.6421 22.7864 19.656 22.65 19.6418Z" fill="white"/>
</svg>
